<svg width="678" height="304" viewBox="0 0 678 304" fill="none" xmlns="http://www.w3.org/2000/svg">
<g clip-path="url(#clip0_4114_966)">
<path fill-rule="evenodd" clip-rule="evenodd" d="M435.41 -171.943C435.382 -171.837 435.353 -171.731 435.325 -171.626C361.726 -186.244 288.402 -143.911 264.263 -72.8631C264.157 -72.8911 264.051 -72.9193 263.946 -72.9476C263.84 -72.9759 263.735 -73.0043 263.629 -73.0328C278.248 -146.632 235.914 -219.955 164.866 -244.095C164.882 -244.155 164.898 -244.215 164.914 -244.275C164.926 -244.321 164.939 -244.366 164.951 -244.412C184.963 -319.097 261.73 -363.419 336.415 -343.407C411.1 -323.395 455.422 -246.628 435.41 -171.943ZM251.747 -66.0564L251.783 -66.1934C180.735 -90.3329 138.402 -163.656 153.02 -237.256C152.915 -237.284 152.809 -237.313 152.704 -237.341C78.0184 -257.353 1.25125 -213.031 -18.7606 -138.346C-38.7725 -63.6606 5.54909 13.1066 80.2343 33.1184C80.34 33.1467 80.4456 33.1749 80.5513 33.203C104.691 -37.8449 178.014 -80.1781 251.613 -65.5597C251.642 -65.6652 251.67 -65.7708 251.699 -65.8765C251.715 -65.9365 251.731 -65.9964 251.747 -66.0564ZM254.019 -75.9997C267.002 -144.003 228.015 -211.531 162.631 -234.289C149.647 -166.285 188.635 -98.7575 254.019 -75.9997ZM90.3576 35.4387C113.115 -29.9453 180.643 -68.9325 248.646 -55.9493C225.888 9.43472 158.361 48.4219 90.3576 35.4387ZM258.453 -53.7136C234.313 17.3343 160.99 59.6676 87.3906 45.0491C87.3621 45.1546 87.3336 45.2602 87.3053 45.3659C87.277 45.4716 87.2488 45.5773 87.2207 45.683C158.268 69.8226 200.602 143.146 185.983 216.745C186.089 216.773 186.195 216.802 186.3 216.83C186.406 216.858 186.512 216.887 186.617 216.915C210.757 145.867 284.08 103.533 357.679 118.152C357.708 118.046 357.736 117.941 357.765 117.835C357.793 117.73 357.821 117.624 357.849 117.518C286.801 93.3789 244.468 20.0553 259.086 -53.5439C258.981 -53.5724 258.875 -53.6008 258.77 -53.6291C258.664 -53.6574 258.558 -53.6855 258.453 -53.7136ZM176.373 213.778C189.356 145.775 150.369 78.2472 84.985 55.4893C72.002 123.492 110.989 191.02 176.373 213.778ZM75.3746 52.5223C60.7562 126.121 103.089 199.445 174.137 223.584C174.109 223.69 174.081 223.796 174.053 223.901C173.764 224.977 173.465 226.046 173.153 227.108C100.553 212.707 28.2285 253.719 3.12529 323.039C2.9463 322.992 2.76731 322.944 2.58835 322.896C-72.0969 302.884 -116.418 226.117 -96.4066 151.432C-76.3947 76.7467 0.372431 32.4251 75.0577 52.437C75.1634 52.4653 75.269 52.4938 75.3746 52.5223ZM77.6461 42.7777C-2.37376 21.3364 -49.8611 -60.9141 -28.4199 -140.934C-6.97861 -220.954 75.2717 -268.441 155.292 -247C176.733 -327.02 258.983 -374.507 339.003 -353.066C419.023 -331.625 466.511 -249.374 445.069 -169.354C466.511 -249.374 548.761 -296.862 628.781 -275.42C708.801 -253.979 756.288 -171.729 734.847 -91.7086C814.867 -70.2673 862.354 11.9832 840.913 92.0031C819.48 171.992 737.285 219.473 657.295 198.094C737.258 219.574 784.701 301.792 763.268 381.781C741.826 461.801 659.576 509.288 579.556 487.847L579.527 487.839C579.288 488.808 579.039 489.776 578.779 490.745C557.338 570.765 475.087 618.252 395.068 596.811C315.048 575.369 267.56 493.119 289.002 413.099C289.261 412.131 289.529 411.167 289.806 410.209L289.778 410.201L289.75 410.194C289.51 411.162 289.261 412.131 289.001 413.099C267.56 493.119 185.31 540.606 105.29 519.165C25.2698 497.724 -22.2176 415.473 -0.776313 335.453C-0.516893 334.485 -0.248567 333.522 0.0285464 332.563C0.019084 332.561 0.00962167 332.558 0.000159321 332.555C-80.0198 311.114 -127.507 228.864 -106.066 148.844C-84.6246 68.8238 -2.37404 21.3365 77.6461 42.7777ZM9.78249 334.834C9.47099 335.897 9.17108 336.966 8.88295 338.041C-11.1289 412.727 33.1926 489.494 107.878 509.506C182.563 529.518 259.33 485.196 279.342 410.511C279.63 409.435 279.905 408.36 280.167 407.284C210.092 383.455 167.964 311.776 180.884 239.191C180.705 239.143 180.526 239.094 180.347 239.047C180.168 238.999 179.989 238.951 179.81 238.904C154.707 308.224 82.383 349.235 9.78249 334.834ZM12.9617 325.264C36.6378 261.681 103.049 224.027 169.974 236.679C146.298 300.262 79.8863 337.916 12.9617 325.264ZM182.907 229.38C182.917 229.382 182.926 229.385 182.935 229.387L182.964 229.395C183.203 228.426 183.453 227.458 183.712 226.489C183.453 227.458 183.184 228.421 182.907 229.38ZM432.358 -162.015C364.355 -174.998 296.827 -136.011 274.069 -70.6273C342.072 -57.6442 409.6 -96.6313 432.358 -162.015ZM442.164 -159.78C418.025 -88.7317 344.701 -46.3985 271.102 -61.017C271.073 -60.9114 271.045 -60.8058 271.017 -60.7001L270.986 -60.5834L270.932 -60.3832C341.981 -36.2438 384.314 37.0798 369.695 110.679L369.83 110.715L370.012 110.764L370.137 110.798L370.329 110.849C394.469 39.8011 467.792 -2.53226 541.391 12.086C541.419 11.9805 541.448 11.8749 541.476 11.7692C541.504 11.6635 541.532 11.5579 541.561 11.4521C470.513 -12.6875 428.18 -86.0107 442.798 -159.61C442.692 -159.638 442.587 -159.667 442.481 -159.695C442.375 -159.723 442.27 -159.751 442.164 -159.78ZM659.585 188.355L659.789 188.41C734.475 208.422 811.242 164.1 831.254 89.4149C851.266 14.7297 806.944 -62.0375 732.259 -82.0494C732.153 -82.0777 732.048 -82.1058 731.942 -82.1339C707.802 -11.0859 634.479 31.2473 560.88 16.6288C560.851 16.7343 560.823 16.8399 560.795 16.9456C560.766 17.0513 560.738 17.1569 560.71 17.2625C631.758 41.4021 674.091 114.726 659.473 188.325L659.585 188.355ZM563.847 7.0184C631.85 20.0016 699.378 -18.9855 722.136 -84.3696C654.132 -97.3528 586.605 -58.3657 563.847 7.0184ZM725.103 -93.98C651.503 -108.599 578.18 -66.2652 554.04 4.78266C553.935 4.7546 553.829 4.72644 553.724 4.69814C553.618 4.66981 553.512 4.64137 553.407 4.61283C568.025 -68.9861 525.692 -142.309 454.644 -166.449C454.672 -166.555 454.7 -166.66 454.729 -166.766C474.741 -241.451 551.508 -285.773 626.193 -265.761C700.878 -245.749 745.2 -168.982 725.188 -94.2968C725.16 -94.1911 725.131 -94.0855 725.103 -93.98ZM548.864 24.1019C534.245 97.7011 576.579 171.025 647.627 195.164L647.583 195.33L647.542 195.481C647.514 195.587 647.486 195.692 647.457 195.798C573.858 181.179 500.534 223.513 476.395 294.56C476.289 294.532 476.184 294.504 476.078 294.476L475.937 294.438L475.761 294.391C490.379 220.792 448.046 147.468 376.999 123.329C377.027 123.223 377.055 123.117 377.083 123.012C377.111 122.906 377.14 122.8 377.168 122.695C450.767 137.313 524.09 94.9799 548.23 23.932C548.336 23.9601 548.442 23.9884 548.547 24.0167C548.653 24.045 548.758 24.0734 548.864 24.1019ZM558.474 27.0688C545.491 95.0722 584.478 162.6 649.863 185.358C662.846 117.354 623.859 49.8266 558.474 27.0688ZM644.49 205.408C576.487 192.425 508.959 231.412 486.201 296.796C554.205 309.779 621.732 270.792 644.49 205.408ZM654.296 207.644C630.157 278.692 556.833 321.025 483.234 306.407L483.195 306.551L483.149 306.723C482.861 307.799 482.586 308.875 482.325 309.951C552.399 333.779 594.528 405.458 581.608 478.043L581.804 478.096C581.917 478.127 582.031 478.157 582.144 478.188C656.829 498.199 733.596 453.878 753.608 379.193C773.62 304.507 729.299 227.74 654.613 207.728L654.446 207.684L654.296 207.644ZM473.465 304.228C473.214 305.165 472.973 306.103 472.742 307.041L472.713 307.033L472.685 307.025C472.953 306.097 473.213 305.165 473.465 304.228ZM569.945 484.929C499.87 461.101 457.741 389.422 470.662 316.837L470.415 316.77L470.373 316.759C470.291 316.737 470.208 316.714 470.125 316.692C469.946 316.644 469.767 316.597 469.588 316.549C444.485 385.87 372.161 426.881 299.56 412.48C299.249 413.543 298.949 414.612 298.661 415.687C278.649 490.372 322.97 567.14 397.656 587.151C472.341 607.163 549.108 562.842 569.12 488.156C569.408 487.081 569.683 486.005 569.945 484.929ZM480.293 319.828C469.005 386.731 507.692 452.546 571.976 475.051C583.264 408.149 544.577 342.334 480.293 319.828ZM192.547 232.305C192.808 231.229 193.083 230.153 193.371 229.078C193.4 228.972 193.428 228.866 193.456 228.761C267.056 243.379 340.379 201.046 364.519 129.998C364.624 130.026 364.73 130.054 364.836 130.083C364.941 130.111 365.047 130.139 365.152 130.168C350.534 203.767 392.867 277.09 463.915 301.23C463.887 301.336 463.859 301.441 463.83 301.547C463.542 302.622 463.242 303.691 462.931 304.754C390.33 290.353 318.006 331.364 292.903 400.685C292.724 400.637 292.545 400.59 292.366 400.542C292.187 400.494 292.008 400.446 291.83 400.397C304.75 327.812 262.621 256.134 192.547 232.305ZM190.515 242.183C179.227 309.085 217.914 374.9 282.199 397.406C293.486 330.503 254.799 264.688 190.515 242.183ZM302.74 402.91C369.664 415.562 436.076 377.908 459.752 314.324C392.827 301.672 326.416 339.326 302.74 402.91ZM466.151 291.424C479.134 223.42 440.147 155.893 374.763 133.135C361.78 201.138 400.767 268.666 466.151 291.424ZM196.423 219.15C264.427 232.134 331.954 193.146 354.712 127.762C286.709 114.779 219.181 153.766 196.423 219.15ZM268.696 -50.5769C255.713 17.4264 294.701 84.9543 360.085 107.712C373.068 39.7087 334.081 -27.8191 268.696 -50.5769ZM380.135 113.085C402.893 47.7006 470.421 8.71341 538.424 21.6963C515.666 87.0803 448.138 126.067 380.135 113.085ZM452.408 -156.643C439.425 -88.6396 478.412 -21.1121 543.796 1.64583C556.779 -66.3572 517.792 -133.885 452.408 -156.643Z" fill="url(#paint0_linear_4114_966)"/>
</g>
<defs>
<linearGradient id="paint0_linear_4114_966" x1="650.5" y1="-41.5" x2="-128" y2="360.5" gradientUnits="userSpaceOnUse">
<stop stop-color="white" stop-opacity="0.6"/>
<stop offset="1" stop-color="white" stop-opacity="0"/>
</linearGradient>
<clipPath id="clip0_4114_966">
<rect width="600" height="600" fill="white" transform="translate(155.292 -247) rotate(15)"/>
</clipPath>
</defs>
</svg>
