<svg xmlns="http://www.w3.org/2000/svg" width="400" height="88.4" viewBox="0 0 0 0 400 88.4"><g fill-rule="evenodd"><path d="M64.901 20.214c-2.244 1.651-2.656 1.977-3.894 3.088-2.002 1.795-3.99 3.851-5.507 5.695a40.098 40.098 0 0 1-.989 1.166c-.131.139-.751.943-1.377 1.787-1.382 1.862-1.313 1.817-2.272 1.471-1.262-.454-1.303-.473-4.768-2.166-4.505-2.201-5.799-2.482-8.106-1.764-1.963.611-3.235 1.771-4.395 4.009-.631 1.217-.863 1.464-1.756 1.863-2.999 1.342-6.784 3.229-7.911 3.946-.995.633-1.251.649-1.757.11-1.249-1.329-5.002.247-5.002 2.102 0 2.587 2.261 2.609 4.648.045 1.066-1.145 1.167-1.208 3.102-1.942 8.427-3.194 10.521-3.44 12.427-1.459.558.58.675.851 1.362 3.168.096.321.229.734.297.917l.582 1.583c1.666 4.544 4.247 7.278 7.832 8.296 4.408 1.252 5.854 1.891 6.596 2.916.968 1.336.554 2.932-1.366 5.258-.247.299-.08.423.295.219a216.11 216.11 0 0 1 2.725-1.367c5.527-2.742 7.787-4.413 7.623-5.638-.18-1.343-1.659-4.636-2.893-6.445-.695-1.016-.626-1.328.322-1.471 1.524-.23 5.845-1.452 6.721-1.901.17-.087.873-.442 1.56-.788 1.591-.801 2.815-1.576 4.107-2.601.563-.446 1.144-.811 1.292-.811.147 0 .268-.113.268-.25 0-.138.075-.25.166-.25.11 0 .167-3.367.167-9.768v-9.768l-.419.105c-.374.094-2.74 1.595-5.463 3.465-1.211.833-1.267.805-1.838-.889-.725-2.151-.983-2.812-1.094-2.806-.057.004-.635.397-1.285.875" fill="#fafbfb"/><path d="M41.25 6.833c-.057.092-.469.167-.917.167-.447 0-.86.075-.916.167-.057.091-.436.166-.844.166-.546 0-.74.066-.74.25 0 .189-.203.25-.833.25-.458 0-.833.075-.833.167 0 .092-.228.167-.506.167-.295 0-.545.104-.601.25-.059.154-.312.25-.661.25-.311 0-.566.075-.566.166 0 .092-.262.167-.583.167-.321 0-.583.075-.583.167 0 .091-.265.166-.589.166-.369 0-.624.093-.684.25-.06.155-.313.25-.662.25-.311 0-.565.067-.565.148 0 .082-.263.198-.584.258-.321.06-.583.181-.583.269 0 .087-.187.159-.417.159-.229 0-.416.075-.416.166 0 .092-.263.167-.584.167-.321 0-.583.067-.583.148 0 .082-.262.197-.583.258-.321.06-.584.181-.584.268 0 .088-.187.159-.416.159-.229 0-.417.075-.417.167 0 .092-.178.167-.396.167-.218 0-.49.112-.604.25-.114.137-.38.25-.59.25-.21 0-.407.069-.438.155-.03.085-.28.179-.555.208-.275.029-.604.151-.73.271-.127.12-.333.179-.458.13-.13-.049-.229.019-.229.158 0 .146-.159.244-.398.244-.218 0-.607.109-.863.242s-.529.202-.606.154c-.078-.048-.121.012-.095.134.033.16-.239.234-.996.27-.573.027-1.042.121-1.042.208 0 .088-.281.161-.625.164-.344.003-.767.113-.941.245-.174.132-.38.2-.459.151-.078-.048-.142-.006-.142.094s-.131.232-.291.293c-.357.135-.709.469-.709.672 0 .083-.187.251-.416.373-.262.14-.417.368-.417.612 0 .214-.075.388-.167.388-.229 0-.229 19.275 0 19.417.101.062.167 1.275.167 3.079 0 1.694.067 3.001.156 3.032.085.031.174.907.198 1.948.031 1.376.102 1.915.261 1.976.154.059.218.462.218 1.366 0 .705.071 1.354.157 1.441.087.087.175.549.197 1.026.024.537.123.901.259.954.125.048.221.338.221.673 0 .323.075.588.166.588.092 0 .167.144.167.32 0 .361.517 1.344.708 1.346.069.001.125.107.125.237 0 .298.541 1.262.709 1.263.068.001.125.081.125.18 0 .098.093.283.208.41.501.559.631.744.521.744-.064 0 .177.282.535.627.359.345.765.851.902 1.125.259.515.578.915.73.915.129 0 1.185 1.111 1.544 1.623.17.243.507.65.748.902.241.253.397.501.347.551-.05.05.029.091.176.091.146 0 .438.243.648.541.375.533 2.079 2.292 2.22 2.292.148 0 .997.922.96 1.042-.022.068.073.125.211.125.137 0 .25.117.25.26 0 .142.065.219.144.17.08-.049.316.134.525.407.209.273.482.496.606.496.123 0 .225.075.225.167 0 .091.08.166.178.166.231 0 .655.424.655.655 0 .098.085.179.189.179.199 0 .977.828.977 1.041.001.069.071.125.158.125.086 0 .499.338.917.75.419.413.84.75.936.75.097 0 .133.07.08.155-.052.085.071.207.274.272.432.137.802.473.802.728 0 .098.085.179.189.179s.436.262.739.583c.302.321.612.583.688.583.076 0 .279.188.451.417.173.229.415.417.54.417.125 0 .227.075.227.166 0 .092.112.167.25.167.137 0 .25.078.25.174 0 .263.783.993 1.064.993.136 0 .294.149.352.333.058.183.288.378.511.434.223.056.406.207.406.334 0 .128.117.232.26.232.143 0 .213.075.157.167-.057.091.014.166.156.166.143 0 .26.075.26.167 0 .092.114.167.254.167.139 0 .339.187.443.416.105.23.31.417.457.417.146 0 .49.261.765.58.274.319.592.581.706.583.115.002.209.121.209.264 0 .142.064.22.142.172.078-.049.284.019.458.151.468.354.643.309 1.305-.333.33-.321.679-.584.774-.584.096 0 .132-.067.081-.149-.09-.146.37-.429.615-.377.068.014.116-.03.105-.099-.053-.332.036-.551.186-.458.092.057.167.03.167-.06 0-.089-.094-.2-.208-.246-.115-.047-.134-.09-.042-.097.11-.009.151-4.719.121-13.867l-.045-13.854.462.111c.254.061.762.188 1.129.283.366.094.929.203 1.25.242.587.072.323-.022-1.75-.628-3.618-1.056-6.166-3.757-7.832-8.301-.252-.687-.516-1.4-.588-1.583a21.764 21.764 0 0 1-.414-1.333c-.517-1.828-.662-2.147-1.25-2.761-1.889-1.972-4.001-1.722-12.416 1.468-1.935.734-2.036.797-3.102 1.942-2.387 2.564-4.648 2.542-4.648-.045 0-1.855 3.753-3.431 5.002-2.102.506.539.762.523 1.757-.11 1.127-.717 4.912-2.604 7.911-3.946.893-.399 1.125-.646 1.756-1.863 1.16-2.238 2.432-3.398 4.395-4.009 2.311-.719 3.642-.429 8.015 1.747 1.771.882 3.29 1.581 3.375 1.553.084-.028-.06-.151-.321-.274a12.24 12.24 0 0 1-.724-.367 20.002 20.002 0 0 0-.931-.472c-1.149-.554-1.077.334-1.029-12.718.033-9.144-.003-11.961-.158-12.105-.257-.241-4.817-.26-4.965-.022m23.167 13.598l-.5.43.541-.359c.298-.197.542-.39.542-.43 0-.125-.071-.081-.583.359m8 .247c-.275.176-.415.321-.31.321.104.001.366-.147.583-.327.495-.413.376-.41-.273.006m-9.334.764c-.502.448-.539.51-.152.251.461-.308 1.041-.869.881-.853-.034.003-.362.274-.729.602m5.584 1.725c-.484.378-.771.418-.89.125-.066-.164-.087-.162-.097.005-.025.409.469.394 1.098-.033.348-.237.559-.429.469-.427-.09.002-.351.15-.58.33m-8.425.708l-.659.708.709-.658c.658-.613.785-.758.658-.758-.027 0-.345.318-.708.708m-2.918 2.917l-.574.625.625-.575c.344-.316.625-.597.625-.625 0-.127-.141-.007-.676.575m-4.043 4.722c-.258.359-.436.653-.395.653.115 0 .989-1.181.922-1.247-.032-.032-.269.235-.527.594m-.948 1.319c-.195.275-.318.5-.272.5.045 0 .243-.225.439-.5s.319-.5.273-.5c-.046 0-.244.225-.44.5m19.005 8.759c-.318.224-.506.408-.417.407.089 0 .387-.185.662-.411.642-.526.502-.524-.245.004m-2.046 1.17c-.623.338-.585.479.041.155.275-.143.5-.294.5-.338 0-.107-.018-.101-.541.183m-2.032.993c-.416.315-.262.313.346-.004.263-.137.365-.247.227-.245-.137.003-.395.115-.573.249m-5.177 1.578c-.21.091-.241.144-.083.144.137 0 .4-.065.583-.144.21-.09.241-.143.084-.143-.138 0-.4.065-.584.143m-2.153.61c-.095.246.6 1.557.825 1.557.046 0-.121-.308-.37-.685-.44-.665-.444-.693-.138-.917.259-.189.268-.231.053-.231-.146 0-.312.124-.37.276m1.153 2.224c.143.275.296.5.342.5.046 0-.033-.225-.175-.5s-.296-.5-.342-.5c-.046 0 .033.225.175.5m1.49 6.875l-.49.541.542-.489c.298-.269.542-.513.542-.542 0-.129-.138-.015-.594.49m-8.925 3.666c-.108.207-.493.731-.854 1.166-.703.847-.561 1.282.235.724.208-.145.302-.265.208-.265s-.259.089-.368.198c-.258.258-.456.056-.222-.228.884-1.071 1.468-1.97 1.281-1.97-.045 0-.172.169-.28.375" fill="#29a6de"/><path d="M49 7.593c0 .16.08.215.208.142.167-.094.167-.072 0 .107-.267.289-.308 24.325-.041 24.325.091 0 .166.112.166.25 0 .156.158.25.419.25.231 0 .549.065.709.144.57.284 1.372.491 1.372.353 0-.077.098-.239.217-.36.119-.122.462-.581.763-1.021.301-.44.748-1.006.992-1.258.245-.252.667-.755.939-1.117.271-.362.721-.885 1-1.162.278-.278.702-.765.942-1.084.531-.705 3.736-3.884 4.314-4.279.229-.157.611-.477.847-.71a9.008 9.008 0 0 1 1.041-.841c.335-.228.61-.472.611-.54 0-.069.113-.125.251-.125.137 0 .25-.057.25-.127 0-.069.491-.459 1.092-.867l1.092-.74.402.492c.221.27.405.656.408.857.003.201.081.411.173.468.091.057.166.319.166.583 0 .265.07.523.154.576.085.052.202.314.261.581.16.732.459.903.883.507.196-.182.39-.33.432-.33.042 0 1.039-.647 2.215-1.438 2.499-1.68 3.143-2.062 3.477-2.062.279 0 .343-.753.078-.917-.091-.057-.166-.251-.166-.432s-.113-.372-.25-.424c-.138-.053-.25-.206-.25-.34 0-.276-.394-.721-.637-.721-.089 0-.204-.112-.257-.25a.412.412 0 0 0-.351-.25c-.14 0-.255-.06-.255-.134 0-.204-1.22-.699-1.723-.699-.244 0-.444-.075-.444-.167 0-.092-.439-.166-.982-.166-.719 0-1.008-.067-1.078-.25-.056-.146-.306-.25-.601-.25-.278 0-.506-.075-.506-.167 0-.092-.179-.167-.399-.167-.219 0-.442-.112-.494-.25-.056-.146-.306-.25-.601-.25-.278 0-.506-.075-.506-.166 0-.092-.145-.167-.323-.167-.178 0-.37-.075-.427-.167-.056-.091-.361-.166-.676-.166-.399 0-.574-.077-.574-.25 0-.156-.157-.25-.416-.25-.229 0-.417-.075-.417-.167 0-.092-.263-.167-.583-.167-.408 0-.584-.075-.584-.25 0-.154-.156-.25-.406-.25-.224 0-.454-.075-.51-.166-.057-.092-.324-.167-.594-.167-.269 0-.49-.075-.49-.167 0-.091-.262-.166-.583-.166-.407 0-.583-.076-.583-.25 0-.175-.176-.25-.584-.25-.321 0-.583-.075-.583-.167 0-.092-.178-.167-.396-.167-.218 0-.483-.104-.589-.232-.181-.218-.528-.323-1.807-.544-.298-.051-.541-.16-.541-.242 0-.082-.255-.148-.566-.148-.349 0-.602-.096-.661-.25-.064-.165-.325-.25-.768-.25-.37 0-.672-.075-.672-.167 0-.092-.254-.167-.566-.167-.348 0-.602-.095-.661-.25-.128-.333-.773-.325-.773.01m25.139 32.2c-.031.069-.393.386-.806.704-.412.318-.787.626-.833.685-.046.059-.498.361-1.004.671l-1.25.765c-.933.571-3.827 1.882-4.155 1.882-.144 0-.392.065-.552.144-.594.297-1.475.57-2.081.646-.343.043-.625.145-.625.228 0 .082-.281.15-.625.151a4.65 4.65 0 0 0-1.247.219c-.661.231-.977.445-.655.445.106 0 .194.088.194.196 0 .107.105.313.233.458.342.385 1.177 1.91 1.604 2.93.381.91.71 1.662.854 1.956.078.159.142.478.142.708 0 .23.075.419.167.419.917 0-.699 2.723-1.829 3.082-.185.059-.338.177-.338.263 0 .085-.106.155-.236.155s-.261.056-.291.125c-.062.138-1.411 1.042-1.556 1.042-.049 0-.387.187-.75.416-.363.23-.768.417-.899.417-.132 0-.265.056-.295.125-.074.167-3.502 1.884-3.75 1.879-.107-.002-.22.052-.25.121-.097.217-1.162.714-1.321.616-.323-.2-.108-.694.687-1.574.455-.504.828-1.011.828-1.125 0-.115.057-.209.126-.209.135 0 .51-.97.652-1.686.143-.721-1.211-2.48-1.908-2.48-.09 0-.256-.113-.37-.25-.114-.138-.419-.25-.677-.25-.259 0-.516-.075-.573-.167-.057-.092-.361-.167-.677-.167-.315 0-.573-.075-.573-.166 0-.092-.115-.167-.256-.167-.228 0-.25 1.355-.208 12.5.026 6.875-.009 12.5-.078 12.5-.068 0-.125.118-.125.262 0 .233.028.234.25.012.138-.138.25-.331.25-.429 0-.098.096-.178.214-.178.117 0 .321-.15.453-.334.132-.183.318-.333.413-.333.096 0 .376-.187.623-.417.247-.229.528-.416.623-.416.096 0 .174-.085.174-.189 0-.2.829-.977 1.042-.978.069 0 .125-.08.125-.179 0-.22.42-.654.634-.654.087 0 .444-.263.794-.584.351-.321.697-.583.771-.583.074 0 .134-.113.134-.25 0-.138.081-.25.179-.25.231 0 .655-.424.655-.655 0-.098.078-.178.174-.178.226 0 .992-.767.992-.993 0-.096.113-.174.25-.174.138 0 .25-.075.25-.167 0-.091.115-.166.256-.166.14 0 .298-.113.351-.25.052-.138.159-.25.237-.25.198 0 1.909-1.723 1.862-1.875-.022-.069.041-.125.139-.125s.772-.6 1.499-1.334C62.903 65.6 63.573 65 63.665 65c.093 0 .168-.066.168-.146 0-.08.788-.954 1.75-1.941.963-.988 1.75-1.934 1.75-2.104 0-.17.079-.309.175-.309.184 0 1.825-1.577 1.825-1.754 0-.057.094-.208.209-.335.431-.482.625-.733.625-.812 0-.045.187-.284.416-.531.23-.248.417-.517.417-.599 0-.082.153-.314.341-.515.387-.416.826-1.237.826-1.545 0-.114.112-.25.25-.303.137-.052.25-.248.25-.434s.075-.339.166-.339c.092 0 .167-.262.167-.583 0-.321.075-.583.167-.583.091 0 .166-.343.166-.762 0-.455.101-.863.25-1.012.171-.171.25-.591.25-1.322 0-.603.073-1.071.167-1.071.1 0 .167-.671.167-1.679 0-1.269.061-1.739.25-1.928.357-.358.37-4.726.014-4.726-.13 0-.262.056-.292.126M48.262 78.595c-.289.289-.328.405-.135.405.069 0 .22-.15.334-.333.25-.4.161-.432-.199-.072m-2.486 2.21c-.304.336-.371.607-.11.446.174-.108.559-.751.449-.751-.035 0-.187.137-.339.305" fill="#0d66a4"/><path d="M46.444 7.111c-.061.061-.111 5.45-.111 11.974 0 13.236-.112 12.022 1.167 12.642.321.155.696.343.833.418.943.514 1 .529 1 .273 0-.138-.075-.251-.166-.251-.267 0-.226-24.036.041-24.325.167-.179.167-.201 0-.107-.126.072-.208.02-.208-.132 0-.171-.145-.238-.458-.212-.252.021-.558-.058-.679-.176-.23-.224-1.226-.297-1.419-.104m18.625 12.577c-.542.378-1.011.753-1.041.833-.031.08-.162.146-.292.146-.13 0-.237.056-.237.125-.001.068-.276.312-.611.54a9.008 9.008 0 0 0-1.041.841 7.576 7.576 0 0 1-.847.71c-.578.395-3.783 3.574-4.314 4.279-.24.319-.664.806-.942 1.084-.279.277-.729.8-1 1.162-.272.362-.694.865-.939 1.117-.244.252-.691.818-.992 1.258-.301.44-.644.899-.763 1.021-.119.121-.217.283-.217.36 0 .138-.802-.069-1.372-.353-.16-.079-.46-.14-.667-.136-.275.007-.197.078.289.263.367.139.797.323.956.408.585.311.881.141 1.608-.925.401-.589.853-1.206 1.005-1.371.151-.165.673-.788 1.161-1.383 3.238-3.957 7.485-7.94 10.541-9.887l.936-.596.258.616c.141.339.372.917.512 1.283.228.592.257.617.265.219.004-.247-.067-.495-.158-.552-.092-.057-.167-.252-.167-.433 0-.327-.629-1.317-.837-1.317-.059 0-.551.309-1.094.688m9.028-.303c-.176.109-1.361.892-2.635 1.74-1.273.848-2.351 1.542-2.395 1.542-.045 0-.24.148-.436.33-.424.396-.723.225-.883-.507-.116-.526-.415-.834-.415-.426 0 .137.066.29.145.339.08.05.191.317.246.594.117.582.359.626.943.17.229-.18.472-.328.541-.33.068-.002.65-.379 1.292-.837.642-.458 1.236-.833 1.32-.833.084 0 .177-.057.208-.126.076-.174 2.127-1.486 2.639-1.688.347-.138.361-.165.083-.166-.183 0-.477.089-.653.198m-.264 20.467l-.753.619c-1.184.981-2.438 1.768-4.211 2.64-.484.238-.843.471-.797.517.077.077 1.41-.542 2.174-1.01l1.25-.765c.506-.31.958-.612 1.004-.671.046-.059.421-.366.833-.682.413-.316.788-.622.834-.679.045-.057.195-.147.333-.2.222-.084.222-.096 0-.102-.138-.004-.437.145-.667.333m-6.425 3.951c-.087.075-.711.316-1.387.535-.675.219-1.137.429-1.025.466.112.038.365-.007.562-.099a10.3 10.3 0 0 1 1.075-.382c.715-.215 1.441-.641 1.109-.651a.576.576 0 0 0-.334.131m-3.575 1.206c-.229.078-.829.251-1.333.386-.883.236-.894.245-.292.258.344.008.625-.061.625-.153s.244-.169.542-.173c.298-.003.729-.113.958-.244.452-.258.17-.3-.5-.074m-3.586.889c-.306.224-.3.255.174.958.269.4.845 1.402 1.279 2.227.434.825.792 1.406.795 1.29.003-.116-.082-.379-.188-.584a16.8 16.8 0 0 1-.306-.622c-.269-.59-1.053-1.938-1.268-2.18-.128-.145-.233-.345-.233-.445 0-.099-.094-.216-.208-.259-.131-.048-.084-.121.125-.194.917-.321 1.026-.399.573-.411a1.411 1.411 0 0 0-.743.22m2.338 5.019l.389 1.166c.216.652.288.748.332.439.03-.216-.026-.475-.125-.575a.724.724 0 0 1-.181-.448c0-.148-.119-.414-.264-.592-.26-.319-.262-.319-.151.01M46.371 65.98c.03 9.152-.011 13.855-.121 13.858-.092.003-.033.084.131.179.248.144.456.016 1.226-.754.51-.511.995-.886 1.077-.836.082.051.149-.024.149-.167 0-.143.057-.26.125-.26.069 0 .104-5.625.078-12.5-.042-11.145-.02-12.5.208-12.5.141 0 .256.075.256.167 0 .091.248.166.55.166.302 0 .631.082.731.181.099.1.358.152.575.116.317-.052.248-.107-.356-.282-.413-.12-.9-.28-1.083-.355a4.819 4.819 0 0 0-.834-.221c-.275-.047-.8-.161-1.166-.254-.367-.093-.875-.22-1.129-.281l-.462-.111.045 13.854m17.056-12.581c.32 1.275-1.781 2.855-7.927 5.963-3.241 1.638-3.716 1.728-2.706.512.775-.933 1.542-2.269 1.533-2.672-.007-.382-.479.429-.488.84-.003.16-.081.291-.172.291-.092 0-.167.094-.167.209 0 .114-.373.621-.828 1.125-.795.88-1.01 1.374-.687 1.574.159.098 1.224-.399 1.321-.616.03-.069.143-.123.25-.121.248.005 3.676-1.712 3.75-1.879.03-.069.163-.125.295-.125.131 0 .536-.187.899-.417.363-.229.701-.416.75-.416.145 0 1.494-.904 1.556-1.042.03-.069.161-.125.291-.125.13 0 .236-.07.236-.155 0-.086.153-.204.338-.263 1.133-.36 2.745-3.082 1.826-3.082-.096 0-.126.174-.07.399M52 53.917c.114.137.308.25.43.25.246 0 1.373 1.059 1.685 1.583.155.26.201.275.209.069.013-.374-.959-1.408-1.704-1.811-.75-.406-.899-.428-.62-.091" fill="#3c84b4"/><path d="M83.833 31.732c0 9.09-.031 10.411-.25 10.495-.218.084-.25 1.287-.25 9.434V61h10.834v-.982c0-.719.067-1.008.25-1.078.216-.083.25-.973.25-6.601v-6.506h1.75c1.055 0 1.75.066 1.75.167 0 .109 3.111.167 9 .167h9v-.512c0-.282.112-.625.25-.762.217-.217.25-1.74.25-11.655V21.833h-12.983c-11.385 0-12.993-.03-13.078-.25-.08-.21-.62-.25-3.434-.25h-3.339v10.399M187 30.323c0 5.259-.059 8.194-.167 8.26-.108.067-.166 4.058-.166 11.427v11.323h3.565c3.016 0 3.58.039 3.662.25.075.197.417.25 1.601.25H197v-1.416c0-.834.069-1.417.167-1.417.107 0 .166-1.861.166-5.25 0-4.556.033-5.25.25-5.25a.25.25 0 0 1 .25.25c0 .137.075.25.167.25.092 0 .167.15.167.333 0 .186.111.334.25.334a.25.25 0 0 1 .25.25c0 .137.075.25.166.25.092 0 .169.131.172.291.007.361.382.875.638.875.105 0 .19.113.19.25 0 .138.075.25.167.25.092 0 .167.15.167.334 0 .185.111.333.25.333a.25.25 0 0 1 .25.25c0 .137.075.25.166.25.092 0 .167.122.167.272 0 .15.262.52.583.822.321.303.584.705.584.895 0 .195.108.344.25.344.137 0 .25.113.25.25 0 .138.075.25.166.25.092 0 .167.123.167.272 0 .15.262.52.583.822.321.303.584.706.584.895 0 .19.08.345.178.345.274 0 .655.442.655.76 0 .156.262.531.583.834.321.302.584.637.584.744 0 .107.256.451.569.764l.568.569 5.64-.044 5.639-.044.053-.543c.036-.374-.029-.574-.209-.643-.143-.055-.26-.242-.26-.415 0-.174-.075-.316-.167-.316-.092 0-.167-.112-.167-.25a.25.25 0 0 0-.25-.25c-.137 0-.25-.136-.25-.302 0-.166-.15-.462-.333-.659-.183-.197-.333-.433-.333-.524 0-.091-.188-.354-.417-.583-.229-.229-.417-.522-.417-.651s-.187-.375-.416-.547c-.229-.172-.417-.407-.417-.523 0-.116-.075-.211-.167-.211-.091 0-.166-.139-.166-.31 0-.17-.188-.45-.417-.623-.229-.172-.417-.482-.417-.69 0-.207-.08-.377-.178-.377-.27 0-.655-.44-.655-.75 0-.309-.385-.75-.655-.75-.098 0-.178-.16-.178-.355 0-.195-.263-.603-.584-.905-.321-.303-.583-.674-.583-.824 0-.308-.385-.749-.655-.749-.098 0-.178-.155-.178-.345 0-.369-.361-.822-.655-.822-.098 0-.179-.187-.179-.416 0-.229-.075-.417-.166-.417-.092 0-.167-.113-.167-.25 0-.138-.075-.25-.167-.25-.091 0-.166-.115-.166-.255a.41.41 0 0 0-.25-.351c-.285-.11-.343-.561-.072-.561.194 0 .655-.41.655-.583 0-.139.444-.583.583-.583.173 0 .584-.461.584-.655a.18.18 0 0 1 .178-.179c.194 0 .655-.41.655-.583 0-.139.444-.583.583-.583.173 0 .584-.461.584-.655a.18.18 0 0 1 .178-.179c.194 0 .655-.41.655-.583 0-.139.444-.583.583-.583.173 0 .584-.461.584-.655a.18.18 0 0 1 .178-.179c.194 0 .655-.41.655-.583 0-.139.444-.583.583-.583.173 0 .584-.461.584-.655a.18.18 0 0 1 .178-.179c.194 0 .655-.41.655-.583 0-.139.444-.583.583-.583.173 0 .584-.461.584-.655a.18.18 0 0 1 .178-.179c.231 0 .655-.424.655-.654 0-.099.075-.179.167-.179.091 0 .166-.15.166-.333 0-.328-.111-.334-6.673-.334h-6.672l-.729.75c-.401.413-.811.75-.911.75-.1 0-.181.072-.181.159 0 .207-1.635 1.841-1.842 1.841-.087 0-.158.081-.158.179 0 .194-.411.655-.584.655-.139 0-.583.444-.583.583 0 .173-.461.583-.655.583a.18.18 0 0 0-.178.179c0 .194-.411.655-.584.655-.139 0-.583.444-.583.583 0 .173-.461.583-.655.583a.18.18 0 0 0-.178.179c0 .231-.424.655-.655.655-.125 0-.179-2.374-.179-7.834 0-6.852.032-7.833.25-7.833.21 0 .25-.352.25-2.167v-2.166H187v8.156m35.667 3.01V44.5h24v11.667H237c-6.333 0-9.667-.058-9.667-.167 0-.104-.973-.167-2.587-.167h-2.587l.045 2.959.046 2.958 16.208.042c10.613.028 16.209.1 16.209.209 0 .098.644.166 1.583.166h1.583V51.583c0-6.944.058-10.583.167-10.583.093 0 .167-.444.167-1v-1h-24.334V28.167h11.75c7.723 0 11.75-.057 11.75-.167 0-.092.113-.167.25-.167.156 0 .25-.157.25-.416 0-.229.075-.417.167-.417.092 0 .167-.254.167-.566 0-.348.095-.602.25-.661.137-.053.25-.248.25-.434 0-.187.075-.339.166-.339.092 0 .167-.262.167-.583 0-.321.075-.584.167-.584.091 0 .166-.262.166-.583v-.583h-11.338c-9.925 0-11.351-.032-11.435-.25-.083-.217-1.016-.25-6.994-.25h-6.899v11.166m40 2.233c0 11.355-.03 12.91-.252 12.995-.22.084-.247.928-.209 6.643l.044 6.546 2.375.046c1.396.027 2.375.113 2.375.209 0 .099 1.168.162 3 .162h3V39.833h8.331l.043 11.125.043 11.125 5.375.044 5.375.044V34.167h-18.834v-11.5h-10.666v12.899m33.166-8.318v4.585h10.334v-3.982c0-3.461.034-3.995.261-4.082.17-.066.243-.26.208-.56l-.053-.459-5.375-.044-5.375-.044v4.586m48 1.507c0 4.962-.034 5.769-.25 5.851-.219.085-.25 1.794-.25 13.995V62.5h10.834v-7.566c0-6.571.033-7.578.25-7.661.219-.084.25-1.593.25-12.184V23h-10.834v5.755m33.5-1.922c0 2.445-.06 3.834-.166 3.834-.102 0-.167.75-.167 1.916V34.5h-19.167v9.25c0 8.153-.03 9.25-.252 9.25-.221 0-.247.593-.209 4.708l.045 4.709 14.958.042 14.958.043v-5.751c0-5.001.033-5.751.25-5.751.221 0 .25-1.667.25-14V23h-10.5v3.833m-272 7.167v6.167H94.667V27.833h10.666V34m14.5 7.512c0 7.344-.034 8.546-.25 8.762-.211.211-.25 1.054-.25 5.488V61h7.25c4.723 0 7.25.058 7.25.167 0 .108 2.5.166 7.167.166h7.167v-.416c0-.26.094-.417.25-.417.139 0 .25-.148.25-.333 0-.184.075-.334.166-.334.092 0 .167-.187.167-.416 0-.229.075-.417.167-.417.091 0 .166-.187.166-.417 0-.259.095-.416.25-.416.156 0 .25-.158.25-.417 0-.229.075-.417.167-.417.092 0 .167-.337.167-.75v-.75h-20V51h19.166V33.333h-8.323c-5.369 0-8.36-.059-8.427-.166-.065-.107-2.39-.167-6.426-.167h-6.324v8.512m34 2.804c0 9.684-.03 10.993-.254 11.079-.216.083-.247.523-.208 2.976l.046 2.879 13.958.043 13.958.042v-.584c0-.408.076-.584.25-.584.156 0 .25-.158.25-.417 0-.229.075-.417.167-.417.092 0 .167-.179.167-.399 0-.219.112-.442.25-.494.137-.053.25-.249.25-.435s.075-.338.166-.338c.092 0 .167-.263.167-.584 0-.321.075-.583.167-.583.091 0 .166-.15.166-.333 0-.33-.111-.334-9.583-.334h-9.583v-8.19c0-7.604.021-8.205.291-8.411.234-.177 1.995-.222 8.834-.227 7.479-.004 8.541-.036 8.541-.255 0-.138.075-.25.167-.25.092 0 .167-.263.167-.583 0-.408.075-.584.25-.584.155 0 .25-.157.25-.416 0-.229.075-.417.166-.417.092 0 .167-.263.167-.583 0-.321.075-.584.167-.584.092 0 .166-.444.166-1v-1h-29.5v10.983m142-9.334c0 .571-.075.844-.25.912-.219.084-.25 1.704-.25 13.184v13.089h10.5v-3c0-1.889.062-3 .167-3 .109 0 .167-3.778.167-11v-11h-10.334v.815m13.611-.704c-.061.061-.111 6.361-.111 14v13.889h28.834v-.417c0-.229.073-.417.163-.417.09 0 .211-.187.268-.416.058-.229.172-.417.253-.417.082 0 .149-.263.149-.583 0-.321.075-.584.167-.584.091 0 .166-.187.166-.416 0-.26.095-.417.25-.417.138 0 .25-.146.25-.323 0-.178.075-.37.167-.427.092-.057.167-.249.167-.427 0-.315-.193-.323-8-.323-7 0-8-.031-8-.25 0-.209-.352-.25-2.167-.25h-2.167v-4.667h6.75c4.389 0 6.75.059 6.75.167 0 .105 1.056.167 2.834.167H339v-8.834c0-7.74-.031-8.833-.25-8.833-.138 0-.25-.075-.25-.167 0-.188-28.868-.243-29.056-.055M138.667 42v3h-8.5v-6h8.5v3m190-.417c0 1.148-.048 1.417-.25 1.417-.205 0-.25.287-.25 1.583v1.584h-8v-6h8.5v1.416m48.333 7V57h-8.833v-7.982c0-6.942.032-7.995.25-8.078.137-.053.25-.249.25-.435 0-.331.089-.338 4.166-.338H377v8.416" fill="#040404"/></g></svg>