<svg width="32" height="32" viewBox="0 0 32 32" fill="none" xmlns="http://www.w3.org/2000/svg">
<circle cx="16" cy="16" r="16" fill="white"/>
<mask id="mask0_57_50" style="mask-type:alpha" maskUnits="userSpaceOnUse" x="1" y="1" width="30" height="30">
<path d="M16 31C24.2843 31 31 24.2843 31 16C31 7.71573 24.2843 1 16 1C7.71573 1 1 7.71573 1 16C1 24.2843 7.71573 31 16 31Z" fill="white"/>
</mask>
<g mask="url(#mask0_57_50)">
<path d="M16 31.375C24.4914 31.375 31.375 24.4914 31.375 16C31.375 7.50862 24.4914 0.625 16 0.625C7.50862 0.625 0.625 7.50862 0.625 16C0.625 24.4914 7.50862 31.375 16 31.375Z" stroke="white" stroke-width="1.5"/>
<path d="M34.5 -2.5H-2.5V34.5H34.5V-2.5Z" fill="#1E1E1E"/>
<path d="M31 1H1V14.5H31V1Z" fill="#65BE78"/>
<path fill-rule="evenodd" clip-rule="evenodd" d="M1 14.5H13.1125V21.7869H23.4506V31H1V14.5Z" fill="#FFE25E"/>
</g>
</svg>
