<svg width="24" height="24" viewBox="0 0 24 24" fill="none" xmlns="http://www.w3.org/2000/svg">
<path fill-rule="evenodd" clip-rule="evenodd" d="M17.7272 4.36304H9.45428C8.75426 4.36304 8.18152 4.93578 8.18152 5.6358V6.27218H15.8181C16.5181 6.27218 17.0909 6.84492 17.0909 7.54494V16.4543H17.7272C18.4273 16.4543 19 15.8815 19 15.1815V5.6358C19 4.93578 18.4273 4.36304 17.7272 4.36304ZM15.8183 8.81753C15.8183 8.11752 15.2455 7.54477 14.5455 7.54477H6.27253C5.57251 7.54477 4.99977 8.11752 4.99977 8.81753V18.3633C4.99977 19.0633 5.57251 19.636 6.27253 19.636H14.5455C15.2455 19.636 15.8183 19.0633 15.8183 18.3633V8.81753ZM10.0909 11.0449C10.0909 11.2358 9.96364 11.3631 9.77273 11.3631H7.2272C7.03629 11.3631 6.90901 11.2358 6.90901 11.0449V10.4085C6.90901 10.2176 7.03629 10.0903 7.2272 10.0903H9.77273C9.96364 10.0903 10.0909 10.2176 10.0909 10.4085V11.0449ZM12.6364 16.1364C12.6364 16.3273 12.5092 16.4545 12.3183 16.4545H7.2272C7.03629 16.4545 6.90901 16.3273 6.90901 16.1364V15.5C6.90901 15.3091 7.03629 15.1818 7.2272 15.1818H12.3183C12.5092 15.1818 12.6364 15.3091 12.6364 15.5V16.1364ZM13.9092 13.5903C13.9092 13.7812 13.7819 13.9085 13.591 13.9085H7.2272C7.03629 13.9085 6.90901 13.7812 6.90901 13.5903V12.9539C6.90901 12.763 7.03629 12.6357 7.2272 12.6357H13.591C13.7819 12.6357 13.9092 12.763 13.9092 12.9539V13.5903Z" fill="#1E1E1E"/>
</svg>
