<svg width="48" height="48" viewBox="0 0 48 48" fill="none" xmlns="http://www.w3.org/2000/svg">
<g filter="url(#filter0_d_55_33)">
<rect x="4" y="4" width="40" height="40" rx="4" fill="white"/>
<path d="M40 8V13.1481C40 19.074 35.2401 23.8891 29.332 23.9848L29.1526 23.9863L23.9999 23.9866V29.1476C23.9999 35.2445 19.1596 39.9998 13.1967 39.9998H8V34.6988C8 34.6751 8.00008 34.6514 8.00023 34.6277V23.1734C8.00023 14.7934 14.7994 8 23.1866 8H40Z" fill="white"/>
<path fill-rule="evenodd" clip-rule="evenodd" d="M33.1308 8.00001H39.9999V13.1477C39.9999 19.2446 35.1596 23.9999 29.1967 23.9999H29.0173H24V18.7031C24 13.3012 27.9556 8.82238 33.1308 8.00001Z" fill="#242265" fill-opacity="0.8"/>
<path d="M40 8V13.1481C40 19.074 35.2401 23.8891 29.332 23.9848L29.1526 23.9863L23.9999 23.9866V29.1476C23.9999 35.2445 19.1596 39.9998 13.1967 39.9998H8V34.6988C8 34.6751 8.00008 34.6514 8.00023 34.6277V23.1734C8.00023 14.7934 14.7994 8 23.1866 8H40Z" fill="#616EE1" fill-opacity="0.8"/>
</g>
<defs>
<filter id="filter0_d_55_33" x="0" y="0" width="48" height="48" filterUnits="userSpaceOnUse" color-interpolation-filters="sRGB">
<feFlood flood-opacity="0" result="BackgroundImageFix"/>
<feColorMatrix in="SourceAlpha" type="matrix" values="0 0 0 0 0 0 0 0 0 0 0 0 0 0 0 0 0 0 127 0" result="hardAlpha"/>
<feOffset/>
<feGaussianBlur stdDeviation="2"/>
<feComposite in2="hardAlpha" operator="out"/>
<feColorMatrix type="matrix" values="0 0 0 0 0 0 0 0 0 0 0 0 0 0 0 0 0 0 0.16 0"/>
<feBlend mode="normal" in2="BackgroundImageFix" result="effect1_dropShadow_55_33"/>
<feBlend mode="normal" in="SourceGraphic" in2="effect1_dropShadow_55_33" result="shape"/>
</filter>
</defs>
</svg>
