<svg width="24" height="24" viewBox="0 0 24 24" fill="none" xmlns="http://www.w3.org/2000/svg">
<path fill-rule="evenodd" clip-rule="evenodd" d="M3 15.9944V16.0613C3 16.3287 3.22689 16.5292 3.52941 16.5292C3.68067 16.5292 3.79412 16.4958 3.90756 16.3955C3.90756 16.3955 7.72689 12.7521 12.416 13.8552V17.532C12.416 17.7994 12.6429 18 12.9454 18C13.0588 18 13.1345 17.9666 13.2101 17.9331L20.8109 12.2173C20.9244 12.117 21 11.9833 21 11.8496C21 11.7159 20.9244 11.5822 20.8487 11.5153L13.2479 6.06685C13.1723 6.03343 13.0588 6 12.9454 6C12.6429 6 12.416 6.20056 12.416 6.46797V9.91086C12.3782 9.91086 4.89076 8.90808 3 15.9944Z" fill="#1E1E1E"/>
</svg>
