<svg width="150" height="150" viewBox="0 0 150 150" fill="none" xmlns="http://www.w3.org/2000/svg">
<g clip-path="url(#clip0_518_2094)">
<path d="M65.5559 54.8898C59.2121 47.5938 71.3274 38.9554 75.9796 34.4388C75.1337 37.9132 71.1783 45.509 77.522 53.8472C82.8394 60.8363 69.3622 67.5076 65.5559 72.0241C67.2479 67.1602 70.7398 60.8517 65.5559 54.8898Z" fill="black"/>
<path d="M64.4378 80.6213H98.7931V98.1536C98.7931 113.003 86.7553 125.04 71.9062 125.04C57.0575 125.04 45.0198 113.003 45.0198 98.1536V49.4214C45.0198 34.5725 57.0575 22.535 71.9062 22.535C86.7553 22.535 98.7931 34.5725 98.7931 49.4214V56.9239" stroke="black" stroke-width="7.90909" stroke-linecap="round"/>
<path d="M101.879 80.6213H111.276C116.938 80.6213 121.527 85.2104 121.527 90.8718C121.527 96.5331 116.938 101.122 111.278 101.122C108.102 101.122 104.7 101.122 101.879 101.122" stroke="black" stroke-width="7.90909"/>
<path d="M74.9999 146.203C114.324 146.203 146.202 114.324 146.202 75C146.202 35.6759 114.324 3.79747 74.9999 3.79747C35.6758 3.79747 3.79736 35.6759 3.79736 75C3.79736 114.324 35.6758 146.203 74.9999 146.203Z" stroke="black" stroke-width="7.90909"/>
</g>
<defs>
<clipPath id="clip0_518_2094">
<rect width="150" height="150" fill="white"/>
</clipPath>
</defs>
</svg>
