<svg width="150" height="150" viewBox="0 0 150 150" fill="none" xmlns="http://www.w3.org/2000/svg"><g clip-path="url(#clip0_519_2176)"><path d="M65.556 54.89c-6.344-7.296 5.771-15.935 10.424-20.451-.846 3.474-4.802 11.07 1.542 19.408 5.317 6.99-8.16 13.66-11.966 18.177 1.692-4.864 5.184-11.172 0-17.134z" fill="#fff"/><path d="M64.438 80.621h34.355v17.533c0 14.849-12.038 26.886-26.887 26.886S45.02 113.003 45.02 98.154V49.42c0-14.849 12.037-26.886 26.886-26.886 14.85 0 26.887 12.037 26.887 26.886v7.503" stroke="#fff" stroke-width="7.909" stroke-linecap="round"/><path d="M101.879 80.621h9.397c5.662 0 10.251 4.59 10.251 10.25 0 5.662-4.589 10.251-10.249 10.251h-9.399" stroke="#fff" stroke-width="7.909"/><path d="M75 146.203c39.324 0 71.202-31.879 71.202-71.203S114.324 3.797 75 3.797 3.797 35.676 3.797 75 35.676 146.203 75 146.203z" stroke="#fff" stroke-width="7.909"/></g><defs><clipPath id="clip0_519_2176"><path fill="#fff" d="M0 0h150v150H0z"/></clipPath></defs></svg>