<?xml version="1.0" standalone="no"?>
<!DOCTYPE svg PUBLIC "-//W3C//DTD SVG 20010904//EN"
 "http://www.w3.org/TR/2001/REC-SVG-20010904/DTD/svg10.dtd">
<svg version="1.0" xmlns="http://www.w3.org/2000/svg"
 width="460.000000pt" height="576.000000pt" viewBox="0 0 460.000000 576.000000"
 preserveAspectRatio="xMidYMid meet">

<g transform="translate(0.000000,576.000000) scale(0.100000,-0.100000)"
fill="#000000" stroke="none">
<path d="M1148 4600 l-1148 -1160 0 -551 c0 -303 4 -549 8 -547 4 2 519 520
1144 1151 625 632 1139 1148 1142 1148 3 -1 519 -520 1146 -1154 627 -633
1145 -1153 1150 -1155 6 -2 10 199 10 555 l0 559 -1142 1154 c-628 635 -1147
1156 -1153 1158 -5 1 -526 -520 -1157 -1158z"/>
<path d="M1410 2669 l-883 -890 175 -177 c96 -97 492 -499 881 -892 l707 -715
46 45 c25 25 424 427 887 893 l841 848 -275 275 -274 274 -476 -477 c-261
-263 -534 -539 -607 -613 l-133 -135 -335 340 -335 339 323 326 c178 179 451
454 607 612 l285 287 -268 275 c-148 152 -272 276 -276 276 -4 0 -405 -401
-890 -891z"/>
</g>
</svg>
